<?xml version="1.0" encoding="utf-8" standalone="no"?>
<!DOCTYPE svg PUBLIC "-//W3C//DTD SVG 1.1//EN"
  "http://www.w3.org/Graphics/SVG/1.1/DTD/svg11.dtd">
<svg xmlns:xlink="http://www.w3.org/1999/xlink" width="568.213437pt" height="315.34117pt" viewBox="0 0 568.213437 315.34117" xmlns="http://www.w3.org/2000/svg" version="1.1">
 <metadata>
  <rdf:RDF xmlns:dc="http://purl.org/dc/elements/1.1/" xmlns:cc="http://creativecommons.org/ns#" xmlns:rdf="http://www.w3.org/1999/02/22-rdf-syntax-ns#">
   <cc:Work>
    <dc:type rdf:resource="http://purl.org/dc/dcmitype/StillImage"/>
    <dc:date>2026-06-17T15:39:22.201123</dc:date>
    <dc:format>image/svg+xml</dc:format>
    <dc:creator>
     <cc:Agent>
      <dc:title>Matplotlib v3.10.9, https://matplotlib.org/</dc:title>
     </cc:Agent>
    </dc:creator>
   </cc:Work>
  </rdf:RDF>
 </metadata>
 <defs>
  <style type="text/css">*{stroke-linejoin: round; stroke-linecap: butt}</style>
 </defs>
 <g id="figure_1">
  <g id="patch_1">
   <path d="M 0 315.34117 
L 568.213437 315.34117 
L 568.213437 0 
L 0 0 
z
" style="fill: #111827"/>
  </g>
  <g id="axes_1">
   <g id="patch_2">
    <path d="M 48.033437 274.881428 
L 561.013437 274.881428 
L 561.013437 29.505 
L 48.033437 29.505 
z
" style="fill: #111827"/>
   </g>
   <g id="patch_3">
    <path d="M 65.132771 274.881428 
L 133.530104 274.881428 
L 133.530104 55.412982 
L 65.132771 55.412982 
z
" clip-path="url(#pbb0f7b109f)" style="fill: #19b3a7"/>
   </g>
   <g id="patch_4">
    <path d="M 236.126104 274.881428 
L 304.523437 274.881428 
L 304.523437 48.224817 
L 236.126104 48.224817 
z
" clip-path="url(#pbb0f7b109f)" style="fill: #19b3a7"/>
   </g>
   <g id="patch_5">
    <path d="M 407.119437 274.881428 
L 475.516771 274.881428 
L 475.516771 41.923702 
L 407.119437 41.923702 
z
" clip-path="url(#pbb0f7b109f)" style="fill: #19b3a7"/>
   </g>
   <g id="patch_6">
    <path d="M 133.530104 274.881428 
L 201.927437 274.881428 
L 201.927437 58.981575 
L 133.530104 58.981575 
z
" clip-path="url(#pbb0f7b109f)" style="fill: #e8ba5b"/>
   </g>
   <g id="patch_7">
    <path d="M 304.523437 274.881428 
L 372.920771 274.881428 
L 372.920771 41.189592 
L 304.523437 41.189592 
z
" clip-path="url(#pbb0f7b109f)" style="fill: #e8ba5b"/>
   </g>
   <g id="patch_8">
    <path d="M 475.516771 274.881428 
L 543.914104 274.881428 
L 543.914104 44.064858 
L 475.516771 44.064858 
z
" clip-path="url(#pbb0f7b109f)" style="fill: #e8ba5b"/>
   </g>
   <g id="patch_9">
    <path d="M 133.530104 274.881428 
L 133.530104 274.881428 
L 133.530104 274.881428 
L 133.530104 274.881428 
z
" clip-path="url(#pbb0f7b109f)" style="fill: #19b3a7"/>
   </g>
   <g id="patch_10">
    <path d="M 133.530104 274.881428 
L 133.530104 274.881428 
L 133.530104 274.881428 
L 133.530104 274.881428 
z
" clip-path="url(#pbb0f7b109f)" style="fill: #e8ba5b"/>
   </g>
   <g id="matplotlib.axis_1">
    <g id="xtick_1">
     <g id="line2d_1">
      <defs>
       <path id="md7226fccc1" d="M 0 0 
L 0 3.5 
" style="stroke: #cbd5e1; stroke-width: 0.8"/>
      </defs>
      <g>
       <use xlink:href="#md7226fccc1" x="133.530104" y="274.881428" style="fill: #cbd5e1; stroke: #cbd5e1; stroke-width: 0.8"/>
      </g>
     </g>
     <g id="text_1">
      <!-- 1 -->
      <g style="fill: #cbd5e1" transform="translate(132.710686 290.306149) rotate(-25) scale(0.1 -0.1)">
       <defs>
        <path id="Sora-Bold-31" d="M 1126 0 
L 1126 3981 
L 1408 3763 
L 211 3763 
L 211 4672 
L 2170 4672 
L 2170 0 
L 1126 0 
z
" transform="scale(0.015625)"/>
       </defs>
       <use xlink:href="#Sora-Bold-31"/>
      </g>
     </g>
    </g>
    <g id="xtick_2">
     <g id="line2d_2">
      <g>
       <use xlink:href="#md7226fccc1" x="304.523437" y="274.881428" style="fill: #cbd5e1; stroke: #cbd5e1; stroke-width: 0.8"/>
      </g>
     </g>
     <g id="text_2">
      <!-- 2 -->
      <g style="fill: #cbd5e1" transform="translate(302.779302 291.168555) rotate(-25) scale(0.1 -0.1)">
       <defs>
        <path id="Sora-Bold-32" d="M 384 0 
L 384 960 
Q 384 1261 483 1485 
Q 582 1709 800 1885 
Q 1018 2061 1376 2214 
L 2131 2541 
Q 2419 2662 2556 2841 
Q 2694 3021 2694 3296 
Q 2694 3578 2521 3757 
Q 2349 3936 2016 3936 
Q 1683 3936 1510 3750 
Q 1338 3565 1338 3251 
L 320 3251 
Q 320 3693 512 4048 
Q 704 4403 1081 4608 
Q 1459 4813 2016 4813 
Q 2573 4813 2947 4614 
Q 3322 4416 3517 4083 
Q 3712 3750 3712 3334 
L 3712 3258 
Q 3712 2720 3417 2371 
Q 3123 2022 2509 1754 
L 1760 1427 
Q 1568 1344 1488 1254 
Q 1408 1165 1408 1011 
L 1408 691 
L 1158 902 
L 3718 902 
L 3718 0 
L 384 0 
z
" transform="scale(0.015625)"/>
       </defs>
       <use xlink:href="#Sora-Bold-32"/>
      </g>
     </g>
    </g>
    <g id="xtick_3">
     <g id="line2d_3">
      <g>
       <use xlink:href="#md7226fccc1" x="475.516771" y="274.881428" style="fill: #cbd5e1; stroke: #cbd5e1; stroke-width: 0.8"/>
      </g>
     </g>
     <g id="text_3">
      <!-- 3 -->
      <g style="fill: #cbd5e1" transform="translate(473.772635 291.168555) rotate(-25) scale(0.1 -0.1)">
       <defs>
        <path id="Sora-Bold-33" d="M 1984 -122 
Q 1440 -122 1040 80 
Q 640 282 429 627 
Q 218 973 218 1408 
L 1229 1408 
Q 1229 1114 1427 931 
Q 1626 749 1984 749 
Q 2221 749 2387 838 
Q 2554 928 2643 1085 
Q 2733 1242 2733 1440 
Q 2733 1747 2537 1945 
Q 2342 2144 1984 2144 
Q 1792 2144 1648 2086 
Q 1504 2029 1402 1946 
L 928 2746 
L 2342 3667 
L 2285 3776 
L 410 3776 
L 410 4672 
L 3558 4672 
L 3558 3699 
L 1926 2662 
L 1414 2803 
Q 1542 2842 1686 2864 
Q 1830 2886 1997 2886 
Q 2541 2886 2931 2707 
Q 3322 2528 3536 2205 
Q 3750 1882 3750 1453 
L 3750 1376 
Q 3750 947 3536 608 
Q 3322 269 2928 73 
Q 2534 -122 1984 -122 
z
" transform="scale(0.015625)"/>
       </defs>
       <use xlink:href="#Sora-Bold-33"/>
      </g>
     </g>
    </g>
    <g id="text_4">
     <!-- Familiarita -->
     <g style="fill: #f9fafb" transform="translate(271.539375 305.74117) scale(0.12 -0.12)">
      <defs>
       <path id="Sora-Bold-46" d="M 525 0 
L 525 4672 
L 1574 4672 
L 1574 0 
L 525 0 
z
M 1446 1882 
L 1446 2752 
L 3251 2752 
L 3251 1882 
L 1446 1882 
z
M 1446 3802 
L 1446 4672 
L 3328 4672 
L 3328 3802 
L 1446 3802 
z
" transform="scale(0.015625)"/>
       <path id="Sora-Bold-61" d="M 2586 0 
L 2586 1037 
L 2413 1037 
L 2413 2163 
Q 2413 2432 2285 2566 
Q 2157 2701 1875 2701 
Q 1734 2701 1504 2694 
Q 1274 2688 1030 2675 
Q 787 2662 589 2650 
L 589 3514 
Q 736 3526 934 3539 
Q 1133 3552 1344 3558 
Q 1555 3565 1741 3565 
Q 2278 3565 2646 3411 
Q 3014 3258 3206 2947 
Q 3398 2637 3398 2150 
L 3398 0 
L 2586 0 
z
M 1466 -90 
Q 1088 -90 803 44 
Q 518 179 358 432 
Q 198 685 198 1037 
Q 198 1421 396 1667 
Q 595 1914 953 2032 
Q 1312 2150 1779 2150 
L 2528 2150 
L 2528 1581 
L 1773 1581 
Q 1504 1581 1360 1449 
Q 1216 1318 1216 1094 
Q 1216 883 1360 752 
Q 1504 621 1773 621 
Q 1946 621 2083 681 
Q 2221 742 2310 889 
Q 2400 1037 2413 1299 
L 2656 1043 
Q 2624 678 2480 428 
Q 2336 179 2083 44 
Q 1830 -90 1466 -90 
z
" transform="scale(0.015625)"/>
       <path id="Sora-Bold-6d" d="M 467 0 
L 467 3507 
L 1280 3507 
L 1280 1997 
L 1222 1997 
Q 1222 2534 1356 2892 
Q 1491 3251 1760 3433 
Q 2029 3616 2419 3616 
L 2464 3616 
Q 2861 3616 3126 3433 
Q 3392 3251 3529 2892 
Q 3667 2534 3667 1997 
L 3418 1997 
Q 3418 2534 3555 2892 
Q 3693 3251 3961 3433 
Q 4230 3616 4621 3616 
L 4666 3616 
Q 5062 3616 5334 3433 
Q 5606 3251 5747 2892 
Q 5888 2534 5888 1997 
L 5888 0 
L 4864 0 
L 4864 2054 
Q 4864 2342 4713 2521 
Q 4563 2701 4288 2701 
Q 4013 2701 3853 2518 
Q 3693 2336 3693 2035 
L 3693 0 
L 2662 0 
L 2662 2054 
Q 2662 2342 2512 2521 
Q 2362 2701 2093 2701 
Q 1811 2701 1651 2518 
Q 1491 2336 1491 2035 
L 1491 0 
L 467 0 
z
" transform="scale(0.015625)"/>
       <path id="Sora-Bold-69" d="M 634 0 
L 634 3507 
L 1658 3507 
L 1658 0 
L 634 0 
z
M 166 2752 
L 166 3507 
L 1658 3507 
L 1658 2752 
L 166 2752 
z
M 1030 3853 
Q 742 3853 604 4003 
Q 467 4154 467 4384 
Q 467 4621 604 4771 
Q 742 4922 1030 4922 
Q 1318 4922 1456 4771 
Q 1594 4621 1594 4384 
Q 1594 4154 1456 4003 
Q 1318 3853 1030 3853 
z
" transform="scale(0.015625)"/>
       <path id="Sora-Bold-6c" d="M 512 0 
L 512 4672 
L 1542 4672 
L 1542 0 
L 512 0 
z
M 96 3917 
L 96 4672 
L 1542 4672 
L 1542 3917 
L 96 3917 
z
" transform="scale(0.015625)"/>
       <path id="Sora-Bold-72" d="M 467 0 
L 467 3507 
L 1280 3507 
L 1280 2003 
L 1261 2003 
Q 1261 2746 1577 3149 
Q 1894 3552 2496 3552 
L 2630 3552 
L 2630 2669 
L 2374 2669 
Q 1952 2669 1721 2441 
Q 1491 2214 1491 1786 
L 1491 0 
L 467 0 
z
" transform="scale(0.015625)"/>
       <path id="Sora-Bold-74" d="M 2061 -45 
Q 1530 -45 1203 86 
Q 877 218 726 528 
Q 576 838 576 1370 
L 576 4454 
L 1530 4454 
L 1530 1331 
Q 1530 1082 1661 950 
Q 1792 819 2035 819 
L 2554 819 
L 2554 -45 
L 2061 -45 
z
M 45 2758 
L 45 3507 
L 2554 3507 
L 2554 2758 
L 45 2758 
z
" transform="scale(0.015625)"/>
      </defs>
      <use xlink:href="#Sora-Bold-46"/>
      <use xlink:href="#Sora-Bold-61" transform="translate(55.999985 0)"/>
      <use xlink:href="#Sora-Bold-6d" transform="translate(115.399979 0)"/>
      <use xlink:href="#Sora-Bold-69" transform="translate(213.699966 0)"/>
      <use xlink:href="#Sora-Bold-6c" transform="translate(247.09996 0)"/>
      <use xlink:href="#Sora-Bold-69" transform="translate(278.599945 0)"/>
      <use xlink:href="#Sora-Bold-61" transform="translate(311.999939 0)"/>
      <use xlink:href="#Sora-Bold-72" transform="translate(371.399933 0)"/>
      <use xlink:href="#Sora-Bold-69" transform="translate(413.499924 0)"/>
      <use xlink:href="#Sora-Bold-74" transform="translate(446.899918 0)"/>
      <use xlink:href="#Sora-Bold-61" transform="translate(490.299911 0)"/>
     </g>
    </g>
   </g>
   <g id="matplotlib.axis_2">
    <g id="ytick_1">
     <g id="line2d_4">
      <path d="M 48.033437 274.881428 
L 561.013437 274.881428 
" clip-path="url(#pbb0f7b109f)" style="fill: none; stroke: #334155; stroke-opacity: 0.28; stroke-width: 0.8; stroke-linecap: square"/>
     </g>
     <g id="line2d_5">
      <defs>
       <path id="m8162889c59" d="M 0 0 
L -3.5 0 
" style="stroke: #cbd5e1; stroke-width: 0.8"/>
      </defs>
      <g>
       <use xlink:href="#m8162889c59" x="48.033437" y="274.881428" style="fill: #cbd5e1; stroke: #cbd5e1; stroke-width: 0.8"/>
      </g>
     </g>
     <g id="text_5">
      <!-- 0.0 -->
      <g style="fill: #cbd5e1" transform="translate(23.044375 278.531428) scale(0.1 -0.1)">
       <defs>
        <path id="Sora-Bold-30" d="M 2445 -122 
Q 1888 -122 1491 60 
Q 1094 243 848 556 
Q 602 870 483 1283 
Q 365 1696 365 2157 
L 365 2522 
Q 365 3162 589 3680 
Q 813 4198 1273 4505 
Q 1734 4813 2445 4813 
Q 3155 4813 3612 4505 
Q 4070 4198 4294 3680 
Q 4518 3162 4518 2522 
L 4518 2157 
Q 4518 1696 4400 1283 
Q 4282 870 4035 556 
Q 3789 243 3395 60 
Q 3002 -122 2445 -122 
z
M 2445 845 
Q 2963 845 3216 1206 
Q 3469 1568 3469 2330 
Q 3469 3136 3209 3491 
Q 2950 3846 2445 3846 
Q 1926 3846 1670 3491 
Q 1414 3136 1414 2342 
Q 1414 1574 1667 1209 
Q 1920 845 2445 845 
z
" transform="scale(0.015625)"/>
        <path id="Sora-Bold-2e" d="M 307 0 
L 307 1146 
L 1434 1146 
L 1434 0 
L 307 0 
z
" transform="scale(0.015625)"/>
       </defs>
       <use xlink:href="#Sora-Bold-30"/>
       <use xlink:href="#Sora-Bold-2e" transform="translate(76.299988 0)"/>
       <use xlink:href="#Sora-Bold-30" transform="translate(103.599976 0)"/>
      </g>
     </g>
    </g>
    <g id="ytick_2">
     <g id="line2d_6">
      <path d="M 48.033437 247.046406 
L 561.013437 247.046406 
" clip-path="url(#pbb0f7b109f)" style="fill: none; stroke: #334155; stroke-opacity: 0.28; stroke-width: 0.8; stroke-linecap: square"/>
     </g>
     <g id="line2d_7">
      <g>
       <use xlink:href="#m8162889c59" x="48.033437" y="247.046406" style="fill: #cbd5e1; stroke: #cbd5e1; stroke-width: 0.8"/>
      </g>
     </g>
     <g id="text_6">
      <!-- 0.5 -->
      <g style="fill: #cbd5e1" transform="translate(24.233437 250.696406) scale(0.1 -0.1)">
       <defs>
        <path id="Sora-Bold-35" d="M 2086 -122 
Q 1530 -122 1126 92 
Q 723 307 508 672 
Q 294 1037 294 1478 
L 1306 1478 
Q 1306 1261 1405 1097 
Q 1504 934 1683 841 
Q 1862 749 2093 749 
Q 2349 749 2525 854 
Q 2701 960 2797 1142 
Q 2893 1325 2893 1555 
Q 2893 1792 2800 1974 
Q 2707 2157 2531 2265 
Q 2355 2374 2106 2374 
Q 1875 2374 1689 2278 
Q 1504 2182 1414 2035 
L 429 2035 
L 666 4672 
L 3501 4672 
L 3501 3776 
L 1082 3776 
L 1485 4045 
L 1344 2528 
L 1101 2592 
Q 1293 2822 1565 2979 
Q 1837 3136 2278 3136 
Q 2790 3136 3152 2928 
Q 3514 2720 3709 2371 
Q 3904 2022 3904 1594 
L 3904 1510 
Q 3904 1082 3693 710 
Q 3482 339 3075 108 
Q 2669 -122 2086 -122 
z
" transform="scale(0.015625)"/>
       </defs>
       <use xlink:href="#Sora-Bold-30"/>
       <use xlink:href="#Sora-Bold-2e" transform="translate(76.299988 0)"/>
       <use xlink:href="#Sora-Bold-35" transform="translate(103.599976 0)"/>
      </g>
     </g>
    </g>
    <g id="ytick_3">
     <g id="line2d_8">
      <path d="M 48.033437 219.211384 
L 561.013437 219.211384 
" clip-path="url(#pbb0f7b109f)" style="fill: none; stroke: #334155; stroke-opacity: 0.28; stroke-width: 0.8; stroke-linecap: square"/>
     </g>
     <g id="line2d_9">
      <g>
       <use xlink:href="#m8162889c59" x="48.033437" y="219.211384" style="fill: #cbd5e1; stroke: #cbd5e1; stroke-width: 0.8"/>
      </g>
     </g>
     <g id="text_7">
      <!-- 1.0 -->
      <g style="fill: #cbd5e1" transform="translate(26.394375 222.861384) scale(0.1 -0.1)">
       <use xlink:href="#Sora-Bold-31"/>
       <use xlink:href="#Sora-Bold-2e" transform="translate(42.799988 0)"/>
       <use xlink:href="#Sora-Bold-30" transform="translate(70.099976 0)"/>
      </g>
     </g>
    </g>
    <g id="ytick_4">
     <g id="line2d_10">
      <path d="M 48.033437 191.376361 
L 561.013437 191.376361 
" clip-path="url(#pbb0f7b109f)" style="fill: none; stroke: #334155; stroke-opacity: 0.28; stroke-width: 0.8; stroke-linecap: square"/>
     </g>
     <g id="line2d_11">
      <g>
       <use xlink:href="#m8162889c59" x="48.033437" y="191.376361" style="fill: #cbd5e1; stroke: #cbd5e1; stroke-width: 0.8"/>
      </g>
     </g>
     <g id="text_8">
      <!-- 1.5 -->
      <g style="fill: #cbd5e1" transform="translate(27.583437 195.026361) scale(0.1 -0.1)">
       <use xlink:href="#Sora-Bold-31"/>
       <use xlink:href="#Sora-Bold-2e" transform="translate(42.799988 0)"/>
       <use xlink:href="#Sora-Bold-35" transform="translate(70.099976 0)"/>
      </g>
     </g>
    </g>
    <g id="ytick_5">
     <g id="line2d_12">
      <path d="M 48.033437 163.541339 
L 561.013437 163.541339 
" clip-path="url(#pbb0f7b109f)" style="fill: none; stroke: #334155; stroke-opacity: 0.28; stroke-width: 0.8; stroke-linecap: square"/>
     </g>
     <g id="line2d_13">
      <g>
       <use xlink:href="#m8162889c59" x="48.033437" y="163.541339" style="fill: #cbd5e1; stroke: #cbd5e1; stroke-width: 0.8"/>
      </g>
     </g>
     <g id="text_9">
      <!-- 2.0 -->
      <g style="fill: #cbd5e1" transform="translate(24.35375 167.191339) scale(0.1 -0.1)">
       <use xlink:href="#Sora-Bold-32"/>
       <use xlink:href="#Sora-Bold-2e" transform="translate(63.199997 0)"/>
       <use xlink:href="#Sora-Bold-30" transform="translate(90.499985 0)"/>
      </g>
     </g>
    </g>
    <g id="ytick_6">
     <g id="line2d_14">
      <path d="M 48.033437 135.706316 
L 561.013437 135.706316 
" clip-path="url(#pbb0f7b109f)" style="fill: none; stroke: #334155; stroke-opacity: 0.28; stroke-width: 0.8; stroke-linecap: square"/>
     </g>
     <g id="line2d_15">
      <g>
       <use xlink:href="#m8162889c59" x="48.033437" y="135.706316" style="fill: #cbd5e1; stroke: #cbd5e1; stroke-width: 0.8"/>
      </g>
     </g>
     <g id="text_10">
      <!-- 2.5 -->
      <g style="fill: #cbd5e1" transform="translate(25.542812 139.356316) scale(0.1 -0.1)">
       <use xlink:href="#Sora-Bold-32"/>
       <use xlink:href="#Sora-Bold-2e" transform="translate(63.199997 0)"/>
       <use xlink:href="#Sora-Bold-35" transform="translate(90.499985 0)"/>
      </g>
     </g>
    </g>
    <g id="ytick_7">
     <g id="line2d_16">
      <path d="M 48.033437 107.871294 
L 561.013437 107.871294 
" clip-path="url(#pbb0f7b109f)" style="fill: none; stroke: #334155; stroke-opacity: 0.28; stroke-width: 0.8; stroke-linecap: square"/>
     </g>
     <g id="line2d_17">
      <g>
       <use xlink:href="#m8162889c59" x="48.033437" y="107.871294" style="fill: #cbd5e1; stroke: #cbd5e1; stroke-width: 0.8"/>
      </g>
     </g>
     <g id="text_11">
      <!-- 3.0 -->
      <g style="fill: #cbd5e1" transform="translate(24.35375 111.521294) scale(0.1 -0.1)">
       <use xlink:href="#Sora-Bold-33"/>
       <use xlink:href="#Sora-Bold-2e" transform="translate(63.199997 0)"/>
       <use xlink:href="#Sora-Bold-30" transform="translate(90.499985 0)"/>
      </g>
     </g>
    </g>
    <g id="ytick_8">
     <g id="line2d_18">
      <path d="M 48.033437 80.036271 
L 561.013437 80.036271 
" clip-path="url(#pbb0f7b109f)" style="fill: none; stroke: #334155; stroke-opacity: 0.28; stroke-width: 0.8; stroke-linecap: square"/>
     </g>
     <g id="line2d_19">
      <g>
       <use xlink:href="#m8162889c59" x="48.033437" y="80.036271" style="fill: #cbd5e1; stroke: #cbd5e1; stroke-width: 0.8"/>
      </g>
     </g>
     <g id="text_12">
      <!-- 3.5 -->
      <g style="fill: #cbd5e1" transform="translate(25.542812 83.686271) scale(0.1 -0.1)">
       <use xlink:href="#Sora-Bold-33"/>
       <use xlink:href="#Sora-Bold-2e" transform="translate(63.199997 0)"/>
       <use xlink:href="#Sora-Bold-35" transform="translate(90.499985 0)"/>
      </g>
     </g>
    </g>
    <g id="ytick_9">
     <g id="line2d_20">
      <path d="M 48.033437 52.201249 
L 561.013437 52.201249 
" clip-path="url(#pbb0f7b109f)" style="fill: none; stroke: #334155; stroke-opacity: 0.28; stroke-width: 0.8; stroke-linecap: square"/>
     </g>
     <g id="line2d_21">
      <g>
       <use xlink:href="#m8162889c59" x="48.033437" y="52.201249" style="fill: #cbd5e1; stroke: #cbd5e1; stroke-width: 0.8"/>
      </g>
     </g>
     <g id="text_13">
      <!-- 4.0 -->
      <g style="fill: #cbd5e1" transform="translate(23.95375 55.851249) scale(0.1 -0.1)">
       <defs>
        <path id="Sora-Bold-34" d="M 211 896 
L 211 1990 
L 1984 4806 
L 2797 4275 
L 1280 1862 
L 1370 1728 
L 4166 1728 
L 4166 896 
L 211 896 
z
M 2662 0 
L 2662 3366 
L 3629 3366 
L 3629 0 
L 2662 0 
z
" transform="scale(0.015625)"/>
       </defs>
       <use xlink:href="#Sora-Bold-34"/>
       <use xlink:href="#Sora-Bold-2e" transform="translate(67.199997 0)"/>
       <use xlink:href="#Sora-Bold-30" transform="translate(94.499985 0)"/>
      </g>
     </g>
    </g>
    <g id="text_14">
     <!-- Media UEQ -->
     <g style="fill: #f9fafb" transform="translate(16.42875 186.214152) rotate(-90) scale(0.12 -0.12)">
      <defs>
       <path id="Sora-Bold-4d" d="M 525 0 
L 525 4672 
L 1971 4672 
L 3040 2048 
L 3162 2048 
L 4218 4672 
L 5690 4672 
L 5690 0 
L 4653 0 
L 4653 3987 
L 4800 3974 
L 3565 947 
L 2566 947 
L 1325 3974 
L 1485 3987 
L 1485 0 
L 525 0 
z
" transform="scale(0.015625)"/>
       <path id="Sora-Bold-65" d="M 2074 -122 
Q 1626 -122 1283 32 
Q 941 186 713 445 
Q 486 704 368 1027 
Q 250 1350 250 1690 
L 250 1818 
Q 250 2170 368 2493 
Q 486 2816 710 3072 
Q 934 3328 1270 3478 
Q 1606 3629 2035 3629 
Q 2598 3629 2985 3376 
Q 3373 3123 3577 2716 
Q 3782 2310 3782 1830 
L 3782 1485 
L 678 1485 
L 678 2067 
L 3162 2067 
L 2829 1798 
Q 2829 2112 2739 2336 
Q 2650 2560 2474 2678 
Q 2298 2797 2035 2797 
Q 1766 2797 1580 2675 
Q 1395 2554 1299 2320 
Q 1203 2086 1203 1747 
Q 1203 1434 1292 1200 
Q 1382 966 1574 838 
Q 1766 710 2074 710 
Q 2355 710 2534 819 
Q 2714 928 2778 1088 
L 3718 1088 
Q 3642 736 3418 461 
Q 3194 186 2854 32 
Q 2515 -122 2074 -122 
z
" transform="scale(0.015625)"/>
       <path id="Sora-Bold-64" d="M 1914 -115 
Q 1542 -115 1238 19 
Q 934 154 710 394 
Q 486 634 368 960 
Q 250 1286 250 1664 
L 250 1811 
Q 250 2189 362 2515 
Q 474 2842 688 3088 
Q 902 3334 1203 3472 
Q 1504 3610 1875 3610 
Q 2298 3610 2605 3427 
Q 2912 3245 3085 2889 
Q 3258 2534 3277 2016 
L 3008 2266 
L 3008 4672 
L 4038 4672 
L 4038 0 
L 3226 0 
L 3226 1453 
L 3366 1453 
Q 3347 954 3158 602 
Q 2970 250 2650 67 
Q 2330 -115 1914 -115 
z
M 2170 742 
Q 2406 742 2601 848 
Q 2797 954 2915 1158 
Q 3034 1363 3034 1651 
L 3034 1888 
Q 3034 2170 2912 2362 
Q 2790 2554 2592 2656 
Q 2394 2758 2163 2758 
Q 1907 2758 1705 2627 
Q 1504 2496 1389 2269 
Q 1274 2042 1274 1741 
Q 1274 1434 1389 1210 
Q 1504 986 1709 864 
Q 1914 742 2170 742 
z
" transform="scale(0.015625)"/>
       <path id="Sora-Bold-20" transform="scale(0.015625)"/>
       <path id="Sora-Bold-55" d="M 2483 -122 
Q 1824 -122 1366 124 
Q 909 371 672 825 
Q 435 1280 435 1901 
L 435 4672 
L 1485 4672 
L 1485 1862 
Q 1485 1555 1603 1328 
Q 1722 1101 1942 979 
Q 2163 858 2483 858 
Q 2810 858 3030 979 
Q 3251 1101 3366 1325 
Q 3482 1549 3482 1862 
L 3482 4672 
L 4531 4672 
L 4531 1901 
Q 4531 1280 4294 825 
Q 4058 371 3603 124 
Q 3149 -122 2483 -122 
z
" transform="scale(0.015625)"/>
       <path id="Sora-Bold-45" d="M 525 0 
L 525 4672 
L 1549 4672 
L 1549 0 
L 525 0 
z
M 1421 0 
L 1421 870 
L 3462 870 
L 3462 0 
L 1421 0 
z
M 1421 1939 
L 1421 2810 
L 3315 2810 
L 3315 1939 
L 1421 1939 
z
M 1421 3802 
L 1421 4672 
L 3418 4672 
L 3418 3802 
L 1421 3802 
z
" transform="scale(0.015625)"/>
       <path id="Sora-Bold-51" d="M 3680 -1395 
Q 3245 -1395 2928 -1292 
Q 2611 -1190 2435 -921 
Q 2259 -653 2259 -154 
L 2259 563 
L 3238 563 
L 3238 -198 
Q 3238 -384 3344 -483 
Q 3450 -582 3635 -582 
L 4333 -582 
L 4333 -1395 
L 3680 -1395 
z
M 2765 -122 
Q 2131 -122 1660 99 
Q 1190 320 883 681 
Q 576 1043 425 1465 
Q 275 1888 275 2278 
L 275 2419 
Q 275 2854 432 3280 
Q 589 3706 902 4051 
Q 1216 4397 1683 4605 
Q 2150 4813 2765 4813 
Q 3379 4813 3846 4605 
Q 4314 4397 4627 4051 
Q 4941 3706 5101 3280 
Q 5261 2854 5261 2419 
L 5261 2278 
Q 5261 1888 5107 1465 
Q 4954 1043 4646 681 
Q 4339 320 3868 99 
Q 3398 -122 2765 -122 
z
M 2765 858 
Q 3098 858 3363 973 
Q 3629 1088 3817 1293 
Q 4006 1498 4102 1766 
Q 4198 2035 4198 2342 
Q 4198 2669 4099 2941 
Q 4000 3213 3811 3414 
Q 3622 3616 3360 3725 
Q 3098 3834 2765 3834 
Q 2432 3834 2169 3725 
Q 1907 3616 1718 3414 
Q 1530 3213 1434 2941 
Q 1338 2669 1338 2342 
Q 1338 2035 1434 1766 
Q 1530 1498 1718 1293 
Q 1907 1088 2169 973 
Q 2432 858 2765 858 
z
" transform="scale(0.015625)"/>
      </defs>
      <use xlink:href="#Sora-Bold-4d"/>
      <use xlink:href="#Sora-Bold-65" transform="translate(97.099991 0)"/>
      <use xlink:href="#Sora-Bold-64" transform="translate(159.499985 0)"/>
      <use xlink:href="#Sora-Bold-69" transform="translate(229.799973 0)"/>
      <use xlink:href="#Sora-Bold-61" transform="translate(263.199966 0)"/>
      <use xlink:href="#Sora-Bold-20" transform="translate(322.59996 0)"/>
      <use xlink:href="#Sora-Bold-55" transform="translate(343.599945 0)"/>
      <use xlink:href="#Sora-Bold-45" transform="translate(421.199936 0)"/>
      <use xlink:href="#Sora-Bold-51" transform="translate(480.59993 0)"/>
     </g>
    </g>
   </g>
   <g id="line2d_22">
    <path clip-path="url(#pbb0f7b109f)" style="fill: none; stroke: #424242; stroke-width: 2.25; stroke-linecap: square"/>
   </g>
   <g id="line2d_23">
    <path clip-path="url(#pbb0f7b109f)" style="fill: none; stroke: #424242; stroke-width: 2.25; stroke-linecap: square"/>
   </g>
   <g id="line2d_24">
    <path clip-path="url(#pbb0f7b109f)" style="fill: none; stroke: #424242; stroke-width: 2.25; stroke-linecap: square"/>
   </g>
   <g id="line2d_25">
    <path clip-path="url(#pbb0f7b109f)" style="fill: none; stroke: #424242; stroke-width: 2.25; stroke-linecap: square"/>
   </g>
   <g id="line2d_26">
    <path clip-path="url(#pbb0f7b109f)" style="fill: none; stroke: #424242; stroke-width: 2.25; stroke-linecap: square"/>
   </g>
   <g id="line2d_27">
    <path clip-path="url(#pbb0f7b109f)" style="fill: none; stroke: #424242; stroke-width: 2.25; stroke-linecap: square"/>
   </g>
   <g id="patch_11">
    <path d="M 48.033437 274.881428 
L 48.033437 29.505 
" style="fill: none; stroke: #334155; stroke-width: 0.8; stroke-linejoin: miter; stroke-linecap: square"/>
   </g>
   <g id="patch_12">
    <path d="M 48.033437 274.881428 
L 561.013437 274.881428 
" style="fill: none; stroke: #334155; stroke-width: 0.8; stroke-linejoin: miter; stroke-linecap: square"/>
   </g>
   <g id="text_15">
    <!-- UEQ per familiarita -->
    <g style="fill: #f9fafb" transform="translate(226.752187 19.505) scale(0.16 -0.16)">
     <defs>
      <path id="Sora-Bold-70" d="M 467 -1280 
L 467 3507 
L 1280 3507 
L 1280 1990 
L 1171 1997 
Q 1197 2522 1389 2883 
Q 1581 3245 1907 3427 
Q 2234 3610 2643 3610 
Q 3008 3610 3305 3475 
Q 3603 3341 3817 3101 
Q 4032 2861 4144 2537 
Q 4256 2214 4256 1830 
L 4256 1683 
Q 4256 1306 4147 976 
Q 4038 646 3830 403 
Q 3622 160 3324 22 
Q 3027 -115 2643 -115 
Q 2246 -115 1929 48 
Q 1613 211 1421 547 
Q 1229 883 1210 1402 
L 1491 1018 
L 1491 -1280 
L 467 -1280 
z
M 2355 742 
Q 2618 742 2813 870 
Q 3008 998 3117 1228 
Q 3226 1459 3226 1760 
Q 3226 2061 3117 2285 
Q 3008 2509 2816 2633 
Q 2624 2758 2355 2758 
Q 2125 2758 1920 2649 
Q 1715 2541 1590 2339 
Q 1466 2138 1466 1850 
L 1466 1613 
Q 1466 1338 1597 1142 
Q 1728 947 1933 844 
Q 2138 742 2355 742 
z
" transform="scale(0.015625)"/>
      <path id="Sora-Bold-66" d="M 544 0 
L 544 3539 
Q 544 4147 889 4441 
Q 1235 4736 1907 4736 
L 2355 4736 
L 2355 3968 
L 1862 3968 
Q 1690 3968 1594 3872 
Q 1498 3776 1498 3603 
L 1498 0 
L 544 0 
z
M 128 2688 
L 128 3437 
L 2406 3437 
L 2406 2688 
L 128 2688 
z
" transform="scale(0.015625)"/>
     </defs>
     <use xlink:href="#Sora-Bold-55"/>
     <use xlink:href="#Sora-Bold-45" transform="translate(77.599991 0)"/>
     <use xlink:href="#Sora-Bold-51" transform="translate(136.999985 0)"/>
     <use xlink:href="#Sora-Bold-20" transform="translate(223.399979 0)"/>
     <use xlink:href="#Sora-Bold-70" transform="translate(244.399963 0)"/>
     <use xlink:href="#Sora-Bold-65" transform="translate(314.699951 0)"/>
     <use xlink:href="#Sora-Bold-72" transform="translate(377.099945 0)"/>
     <use xlink:href="#Sora-Bold-20" transform="translate(419.199936 0)"/>
     <use xlink:href="#Sora-Bold-66" transform="translate(440.199921 0)"/>
     <use xlink:href="#Sora-Bold-61" transform="translate(478.399918 0)"/>
     <use xlink:href="#Sora-Bold-6d" transform="translate(537.799911 0)"/>
     <use xlink:href="#Sora-Bold-69" transform="translate(636.099899 0)"/>
     <use xlink:href="#Sora-Bold-6c" transform="translate(669.499893 0)"/>
     <use xlink:href="#Sora-Bold-69" transform="translate(700.999878 0)"/>
     <use xlink:href="#Sora-Bold-61" transform="translate(734.399872 0)"/>
     <use xlink:href="#Sora-Bold-72" transform="translate(793.799866 0)"/>
     <use xlink:href="#Sora-Bold-69" transform="translate(835.899857 0)"/>
     <use xlink:href="#Sora-Bold-74" transform="translate(869.29985 0)"/>
     <use xlink:href="#Sora-Bold-61" transform="translate(912.699844 0)"/>
    </g>
   </g>
   <g id="legend_1">
    <g id="patch_13">
     <path d="M 471.43375 80.575312 
L 554.013437 80.575312 
Q 556.013437 80.575312 556.013437 78.575312 
L 556.013437 36.505 
Q 556.013437 34.505 554.013437 34.505 
L 471.43375 34.505 
Q 469.43375 34.505 469.43375 36.505 
L 469.43375 78.575312 
Q 469.43375 80.575312 471.43375 80.575312 
z
" style="fill: #111827; opacity: 0.8"/>
    </g>
    <g id="text_16">
     <!-- system -->
     <g style="fill: #f9fafb" transform="translate(494.10875 45.805) scale(0.1 -0.1)">
      <defs>
       <path id="Sora-Bold-73" d="M 1798 -109 
Q 1050 -109 627 198 
Q 205 506 179 1062 
L 1088 1062 
Q 1114 896 1290 765 
Q 1466 634 1818 634 
Q 2086 634 2262 726 
Q 2438 819 2438 992 
Q 2438 1146 2304 1238 
Q 2170 1331 1824 1370 
L 1549 1395 
Q 915 1459 598 1747 
Q 282 2035 282 2483 
Q 282 2854 467 3104 
Q 653 3354 982 3482 
Q 1312 3610 1734 3610 
Q 2413 3610 2829 3312 
Q 3245 3014 3264 2451 
L 2355 2451 
Q 2330 2624 2176 2742 
Q 2022 2861 1722 2861 
Q 1485 2861 1344 2771 
Q 1203 2682 1203 2528 
Q 1203 2381 1324 2304 
Q 1446 2227 1722 2195 
L 1997 2170 
Q 2643 2099 3001 1811 
Q 3360 1523 3360 1037 
Q 3360 685 3168 425 
Q 2976 166 2624 28 
Q 2272 -109 1798 -109 
z
" transform="scale(0.015625)"/>
       <path id="Sora-Bold-79" d="M 429 -1389 
L 429 -518 
L 1158 -518 
Q 1325 -518 1440 -476 
Q 1555 -435 1625 -339 
Q 1696 -243 1741 -77 
L 2605 3507 
L 3578 3507 
L 2598 -282 
Q 2496 -691 2313 -934 
Q 2131 -1178 1827 -1283 
Q 1523 -1389 1056 -1389 
L 429 -1389 
z
M 1530 77 
L 1530 877 
L 2272 877 
L 2272 77 
L 1530 77 
z
M 1107 77 
L 32 3507 
L 1062 3507 
L 2080 77 
L 1107 77 
z
" transform="scale(0.015625)"/>
      </defs>
      <use xlink:href="#Sora-Bold-73"/>
      <use xlink:href="#Sora-Bold-79" transform="translate(55.599991 0)"/>
      <use xlink:href="#Sora-Bold-73" transform="translate(112.599976 0)"/>
      <use xlink:href="#Sora-Bold-74" transform="translate(168.199966 0)"/>
      <use xlink:href="#Sora-Bold-65" transform="translate(211.59996 0)"/>
      <use xlink:href="#Sora-Bold-6d" transform="translate(273.999954 0)"/>
     </g>
    </g>
    <g id="patch_14">
     <path d="M 473.43375 60.275312 
L 493.43375 60.275312 
L 493.43375 53.275312 
L 473.43375 53.275312 
z
" style="fill: #19b3a7"/>
    </g>
    <g id="text_17">
     <!-- Deliveroo -->
     <g style="fill: #f9fafb" transform="translate(501.43375 60.275312) scale(0.1 -0.1)">
      <defs>
       <path id="Sora-Bold-44" d="M 1446 -26 
L 1446 954 
L 2317 954 
Q 2643 954 2905 1053 
Q 3168 1152 3353 1334 
Q 3539 1517 3635 1776 
Q 3731 2035 3731 2349 
Q 3731 2675 3635 2931 
Q 3539 3187 3353 3366 
Q 3168 3546 2905 3638 
Q 2643 3731 2317 3731 
L 1446 3731 
L 1446 4710 
L 2259 4710 
Q 2893 4710 3366 4524 
Q 3840 4339 4160 4019 
Q 4480 3699 4637 3286 
Q 4794 2874 4794 2419 
L 4794 2278 
Q 4794 1856 4637 1443 
Q 4480 1030 4160 700 
Q 3840 371 3366 172 
Q 2893 -26 2259 -26 
L 1446 -26 
z
M 525 -26 
L 525 4710 
L 1574 4710 
L 1574 -26 
L 525 -26 
z
" transform="scale(0.015625)"/>
       <path id="Sora-Bold-76" d="M 1146 0 
L 96 3507 
L 1152 3507 
L 2138 0 
L 1146 0 
z
M 1466 0 
L 1466 851 
L 2496 851 
L 2496 0 
L 1466 0 
z
M 1843 0 
L 2694 3507 
L 3680 3507 
L 2771 0 
L 1843 0 
z
" transform="scale(0.015625)"/>
       <path id="Sora-Bold-6f" d="M 2176 -122 
Q 1715 -122 1356 22 
Q 998 166 752 416 
Q 506 666 378 989 
Q 250 1312 250 1670 
L 250 1818 
Q 250 2182 381 2512 
Q 512 2842 765 3091 
Q 1018 3341 1376 3485 
Q 1734 3629 2176 3629 
Q 2630 3629 2985 3485 
Q 3341 3341 3590 3091 
Q 3840 2842 3974 2512 
Q 4109 2182 4109 1818 
L 4109 1670 
Q 4109 1312 3981 989 
Q 3853 666 3606 416 
Q 3360 166 3001 22 
Q 2643 -122 2176 -122 
z
M 2176 742 
Q 2477 742 2675 870 
Q 2874 998 2979 1228 
Q 3085 1459 3085 1741 
Q 3085 2042 2976 2269 
Q 2867 2496 2665 2630 
Q 2464 2765 2176 2765 
Q 1894 2765 1689 2630 
Q 1485 2496 1379 2269 
Q 1274 2042 1274 1741 
Q 1274 1459 1376 1228 
Q 1478 998 1683 870 
Q 1888 742 2176 742 
z
" transform="scale(0.015625)"/>
      </defs>
      <use xlink:href="#Sora-Bold-44"/>
      <use xlink:href="#Sora-Bold-65" transform="translate(78.099991 0)"/>
      <use xlink:href="#Sora-Bold-6c" transform="translate(140.499985 0)"/>
      <use xlink:href="#Sora-Bold-69" transform="translate(171.999969 0)"/>
      <use xlink:href="#Sora-Bold-76" transform="translate(205.399963 0)"/>
      <use xlink:href="#Sora-Bold-65" transform="translate(265.09996 0)"/>
      <use xlink:href="#Sora-Bold-72" transform="translate(327.499954 0)"/>
      <use xlink:href="#Sora-Bold-6f" transform="translate(369.599945 0)"/>
      <use xlink:href="#Sora-Bold-6f" transform="translate(437.699936 0)"/>
     </g>
    </g>
    <g id="patch_15">
     <path d="M 473.43375 74.575312 
L 493.43375 74.575312 
L 493.43375 67.575312 
L 473.43375 67.575312 
z
" style="fill: #e8ba5b"/>
    </g>
    <g id="text_18">
     <!-- Glovo -->
     <g style="fill: #f9fafb" transform="translate(501.43375 74.575312) scale(0.1 -0.1)">
      <defs>
       <path id="Sora-Bold-47" d="M 2739 -122 
Q 2112 -122 1645 86 
Q 1178 294 874 646 
Q 570 998 422 1427 
Q 275 1856 275 2285 
L 275 2426 
Q 275 2867 422 3289 
Q 570 3712 867 4057 
Q 1165 4403 1609 4608 
Q 2054 4813 2637 4813 
Q 3270 4813 3756 4579 
Q 4243 4346 4537 3933 
Q 4832 3520 4877 2976 
L 3827 2976 
Q 3789 3232 3625 3424 
Q 3462 3616 3209 3725 
Q 2957 3834 2637 3834 
Q 2330 3834 2090 3725 
Q 1850 3616 1680 3417 
Q 1510 3219 1424 2947 
Q 1338 2675 1338 2349 
Q 1338 2010 1430 1731 
Q 1523 1453 1702 1251 
Q 1882 1050 2147 941 
Q 2413 832 2739 832 
Q 3174 832 3494 1011 
Q 3814 1190 3955 1485 
L 3827 768 
L 3827 1882 
L 4794 1882 
L 4794 883 
Q 4493 397 3965 137 
Q 3437 -122 2739 -122 
z
M 2605 1677 
L 2605 2432 
L 5178 2432 
L 5178 1677 
L 2605 1677 
z
" transform="scale(0.015625)"/>
      </defs>
      <use xlink:href="#Sora-Bold-47"/>
      <use xlink:href="#Sora-Bold-6c" transform="translate(83.299988 0)"/>
      <use xlink:href="#Sora-Bold-6f" transform="translate(114.799973 0)"/>
      <use xlink:href="#Sora-Bold-76" transform="translate(182.899963 0)"/>
      <use xlink:href="#Sora-Bold-6f" transform="translate(242.59996 0)"/>
     </g>
    </g>
   </g>
  </g>
 </g>
 <defs>
  <clipPath id="pbb0f7b109f">
   <rect x="48.033437" y="29.505" width="512.98" height="245.376428"/>
  </clipPath>
 </defs>
</svg>
